<?xml version="1.0" encoding="UTF-8" standalone="no"?>
<svg width="243px" height="43px" viewBox="0 0 243 43" version="1.1" xmlns="http://www.w3.org/2000/svg" xmlns:xlink="http://www.w3.org/1999/xlink">
    <!-- Generator: Sketch 46.1 (44463) - http://www.bohemiancoding.com/sketch -->
    <title>Group Copy</title>
    <desc>Created with Sketch.</desc>
    <defs></defs>
    <g id="Page-1" stroke="none" stroke-width="1" fill="none" fill-rule="evenodd">
        <g id="Trang_Chu_Di_Dong-Copy" transform="translate(-11.000000, -581.000000)">
            <g id="Group-Copy" transform="translate(11.000000, 582.000000)">
                <g id="Group-3">
                    <g id="Group-25" transform="translate(7.000000, 0.000000)">
                        <path d="M14.5,29 C22.5081289,29 29,22.8059128 29,14.6918359 C29,6.57775898 22.5081289,0 14.5,0 C6.49187112,0 0,6.57775898 0,14.6918359 C0,22.8059128 6.49187112,29 14.5,29 Z" id="Oval-6" stroke="#13458B" stroke-width="0.75"></path>
                        <polygon id="Path-7" fill="#0F4693" fill-rule="nonzero" points="14.4726118 0.378814697 11.9135055 11.7833273 0.35168457 14.4364024 11.9594701 17.0432302 14.4726118 28.6037292 17.0996872 16.9792157 28.612854 14.4040032 17.1813478 11.9364396"></polygon>
                        <polygon id="Path-8" fill="#EF2520" fill-rule="nonzero" points="14.5377692 5.42524881 12.8859757 12.8498875 5.49080139 14.636807 12.77302 16.1566945 14.4342264 23.5886492 16.0777072 16.1492479 23.4329069 14.5248469 15.9916457 12.8842463"></polygon>
                        <polygon id="Path-9" fill="#FCF201" fill-rule="nonzero" points="14.4700446 10.6522953 13.7700006 13.7531454 10.474054 14.4949299 13.6978752 15.1886383 14.4700446 18.4148392 15.1817632 15.1405621 18.500142 14.5367354 15.1585364 13.7775101"></polygon>
                    </g>
                    <g id="Group-27" transform="translate(0.000000, 35.000000)" fill-rule="nonzero">
                        <path d="M5.52266667,6.69565217 L5.52266667,5.23478261 L2.14133333,5.23478261 L2.14133333,4.13426087 L5.448,4.13426087 L5.448,2.6733913 L2.14133333,2.6733913 L2.14133333,1.66052174 L5.52266667,1.66052174 L5.52266667,0.199652174 L0.306666667,0.199652174 L0.306666667,6.69565217 L5.52266667,6.69565217 Z M11.1688889,6.69565217 L13.8568889,0.199652174 L11.7768889,0.199652174 L10.0168889,4.88417391 L8.26755557,0.199652174 L6.18755557,0.199652174 L8.8648889,6.69565217 L11.1688889,6.69565217 Z M21.3484445,6.69565217 L21.3484445,0.199652174 L19.5031111,0.199652174 L19.5031111,3.77391304 L16.6231111,0.199652174 L14.7351111,0.199652174 L14.7351111,6.69565217 L16.5697778,6.69565217 L16.5697778,2.93634783 L19.5777778,6.69565217 L21.3484445,6.69565217 Z" id="EVN" fill="#002992"></path>
                        <path d="M25.9893333,6.81252174 C23.984,6.81252174 22.384,5.67304348 22.384,3.86156522 C22.384,1.59234783 24.304,0.0925217391 26.5866667,0.0925217391 C28.5066667,0.0925217391 29.5093333,1.07617391 29.8826667,2.08904348 L28.112,2.61495652 C27.9093333,1.96243478 27.2906667,1.57286957 26.5013333,1.57286957 C25.264,1.57286957 24.2933333,2.55652174 24.2933333,3.75443478 C24.2933333,4.63095652 24.9866667,5.33217391 26.096,5.33217391 C26.672,5.33217391 27.3226667,5.02052174 27.6426667,4.58226087 L29.072,5.43930435 C28.2186667,6.50086957 26.9386667,6.81252174 25.9893333,6.81252174 Z M31.6118519,6.69565217 L29.7771852,6.69565217 L31.3451852,0.199652174 L34.7905187,0.199652174 C36.0385187,0.199652174 36.8811853,1.03721739 36.8811853,2.05982609 C36.8811853,3.01426087 36.187852,4.51408696 33.8411853,4.51408696 L32.1345185,4.51408696 L31.6118519,6.69565217 Z M32.4865185,3.05321739 L33.9371853,3.05321739 C34.523852,3.05321739 34.9825187,2.72208696 34.9825187,2.24486957 C34.9825187,1.88452174 34.683852,1.66052174 34.2465187,1.66052174 L32.8278519,1.66052174 L32.4865185,3.05321739 Z M40.893037,6.81252174 C41.8423703,6.81252174 43.1223703,6.50086957 43.9757037,5.43930435 L42.5463703,4.58226087 C42.2263703,5.02052174 41.5757037,5.33217391 40.9997037,5.33217391 C39.8903703,5.33217391 39.197037,4.63095652 39.197037,3.75443478 C39.197037,2.55652174 40.1677037,1.57286957 41.405037,1.57286957 C42.1943703,1.57286957 42.813037,1.96243478 43.0157037,2.61495652 L44.7863703,2.08904348 C44.413037,1.07617391 43.4103703,0.0925217391 41.4903703,0.0925217391 C39.2077037,0.0925217391 37.2877037,1.59234783 37.2877037,3.86156522 C37.2877037,5.67304348 38.8877037,6.81252174 40.893037,6.81252174 Z" id="CPC" fill="#EF2520"></path>
                    </g>
                </g>
                <path d="M57.4333212,9.20900909 L55.1697978,9.20900909 L55.1697978,15.3469388 L53.3517274,15.3469388 L53.3517274,9.20900909 L51.1296415,9.20900909 L51.1296415,7.80531378 L57.4333212,7.80531378 L57.4333212,9.20900909 Z M64.5864696,11.7315169 C64.5864696,12.4670362 64.4500726,13.1179438 64.1772743,13.6842591 C63.9044761,14.2505744 63.5168667,14.6865271 63.0144345,14.9921302 C62.5120023,15.2977333 61.9396525,15.4505325 61.2973681,15.4505325 C60.6550836,15.4505325 60.0853237,15.3029129 59.5880712,15.0076692 C59.0908187,14.7124256 58.7032093,14.2902853 58.4252314,13.7412357 C58.1472534,13.192186 58.0013603,12.561997 57.9875478,11.8506497 L57.9875478,11.4259153 C57.9875478,10.6869429 58.1230816,10.0351721 58.3941532,9.47058331 C58.6652249,8.90599455 59.0536976,8.47004187 59.5595829,8.16271221 C60.0654683,7.85538255 60.6412711,7.70172003 61.2870087,7.70172003 C61.92584,7.70172003 62.4955999,7.85365601 62.9963056,8.15753253 C63.4970112,8.46140904 63.8863472,8.89390863 64.1643251,9.45504424 C64.4423031,10.0161799 64.5830165,10.659318 64.5864696,11.3844778 L64.5864696,11.7315169 Z M62.7373212,11.415556 C62.7373212,10.6662241 62.6121467,10.0973274 62.3617939,9.70884893 C62.111441,9.32037043 61.7531829,9.12613409 61.2870087,9.12613409 C60.3753791,9.12613409 59.893673,9.809846 59.8418759,11.1772903 L59.8366962,11.7315169 C59.8366962,12.4704893 59.9592809,13.0385227 60.204454,13.4356341 C60.4496271,13.8327454 60.8139282,14.0312982 61.2973681,14.0312982 C61.756636,14.0312982 62.1105778,13.8361985 62.359204,13.4459935 C62.6078303,13.0557884 62.7338681,12.4946612 62.7373212,11.762595 L62.7373212,11.415556 Z M63.1361571,7.43237628 L61.9914462,7.43237628 L61.2662899,6.83153253 L60.5411337,7.43237628 L59.3860634,7.43237628 L60.8519149,6.3032044 L61.6806649,6.3032044 L63.1361571,7.43237628 Z M62.6492665,6.79527471 L62.5456728,6.24622784 C62.9427841,6.22550898 63.1413368,6.13572863 63.1413368,5.97688409 C63.1413368,5.85947725 63.0878139,5.78091944 62.9807665,5.74120831 C62.8737191,5.70149717 62.7321424,5.6816419 62.5560321,5.6816419 L62.5922899,5.0600794 C63.1171676,5.0600794 63.5125464,5.13432085 63.7784384,5.28280596 C64.0443303,5.43129108 64.1772743,5.64020305 64.1772743,5.90954815 C64.1772743,6.07184584 64.1194351,6.20824291 64.0037548,6.31874346 C63.8880745,6.42924402 63.7300956,6.49830582 63.5298134,6.52593096 L63.5349931,6.79527471 L62.6492665,6.79527471 Z M71.8224931,15.3469388 L70.0147821,15.3469388 L67.3420634,10.6541419 L67.3420634,15.3469388 L65.5239931,15.3469388 L65.5239931,7.80531378 L67.3420634,7.80531378 L70.0096024,12.4981107 L70.0096024,7.80531378 L71.8224931,7.80531378 L71.8224931,15.3469388 Z M79.1465712,14.414595 C78.8668667,14.7253778 78.4576755,14.9757269 77.9189853,15.1656497 C77.3802951,15.3555725 76.7898166,15.4505325 76.1475321,15.4505325 C75.1599334,15.4505325 74.3709023,15.1483871 73.7804149,14.5440872 C73.1899276,13.9397873 72.8739698,13.0989598 72.8325321,12.0215794 L72.8273524,11.3689388 C72.8273524,10.6265132 72.9585699,9.97819545 73.2210087,9.42396612 C73.4834475,8.86973679 73.8589711,8.44328011 74.3475907,8.14458331 C74.8362104,7.8458865 75.4016539,7.69654034 76.0439384,7.69654034 C76.9831931,7.69654034 77.7126584,7.91149522 78.2323564,8.34141143 C78.7520543,8.77132764 79.055063,9.4127392 79.1413915,10.2656653 L77.3906571,10.2656653 C77.3285006,9.84438198 77.19383,9.54396311 76.9866415,9.36439971 C76.779453,9.18483632 76.4859403,9.09505596 76.1060946,9.09505596 C75.6502799,9.09505596 75.2980646,9.28842903 75.0494384,9.67518096 C74.8008121,10.0619329 74.6747743,10.6144274 74.6713212,11.332681 L74.6713212,11.7884935 C74.6713212,12.5412785 74.7999488,13.106722 75.0572079,13.4848411 C75.314467,13.8629602 75.7193419,14.0520169 76.2718446,14.0520169 C76.7449251,14.0520169 77.0971404,13.9466976 77.3285009,13.736056 L77.3285009,12.5654466 L76.0646571,12.5654466 L76.0646571,11.3171419 L79.1465712,11.3171419 L79.1465712,14.414595 Z M88.9465399,12.7933528 C88.922368,13.3182305 88.7807912,13.7818079 88.5218056,14.1840989 C88.2628199,14.58639 87.8993821,14.8980314 87.4314814,15.1190325 C86.9635806,15.3400336 86.4292148,15.4505325 85.8283681,15.4505325 C84.8373162,15.4505325 84.0569178,15.1276686 83.4871493,14.481931 C82.9173809,13.8361934 82.6325009,12.9245775 82.6325009,11.747056 L82.6325009,11.3741185 C82.6325009,10.635146 82.7611285,9.98855483 83.0183876,9.43432549 C83.2756467,8.88009616 83.6459907,8.45191294 84.1294306,8.14976299 C84.6128705,7.84761305 85.1722711,7.69654034 85.8076493,7.69654034 C86.722732,7.69654034 87.4582403,7.9373934 88.0141962,8.41910674 C88.5701521,8.90082009 88.8861099,9.56467673 88.962079,10.4106966 L87.1491884,10.4106966 C87.1353758,9.95142867 87.0196973,9.62165853 86.8021493,9.42137628 C86.5846014,9.22109402 86.2531047,9.1209544 85.8076493,9.1209544 C85.3552877,9.1209544 85.023791,9.29015583 84.8131493,9.62856378 C84.6025076,9.96697172 84.4920088,10.5073804 84.4816493,11.249806 L84.4816493,11.7833138 C84.4816493,12.5878959 84.5826522,13.1628355 84.784661,13.5081497 C84.9866699,13.8534639 85.3345687,14.0261185 85.8283681,14.0261185 C86.2461983,14.0261185 86.5656092,13.9277054 86.7866103,13.7308763 C87.0076114,13.5340472 87.1250164,13.2215425 87.138829,12.7933528 L88.9465399,12.7933528 Z M96.1929228,11.7315169 C96.1929228,12.4670362 96.0565257,13.1179438 95.7837274,13.6842591 C95.5109292,14.2505744 95.1233198,14.6865271 94.6208876,14.9921302 C94.1184554,15.2977333 93.5461057,15.4505325 92.9038212,15.4505325 C92.2615367,15.4505325 91.6917768,15.3029129 91.1945243,15.0076692 C90.6972718,14.7124256 90.3096624,14.2902853 90.0316845,13.7412357 C89.7537065,13.192186 89.6078135,12.561997 89.5940009,11.8506497 L89.5940009,11.4259153 C89.5940009,10.6869429 89.7295347,10.0351721 90.0006064,9.47058331 C90.271678,8.90599455 90.6601507,8.47004187 91.166036,8.16271221 C91.6719214,7.85538255 92.2477242,7.70172003 92.8934618,7.70172003 C93.5322931,7.70172003 94.1020531,7.85365601 94.6027587,8.15753253 C95.1034643,8.46140904 95.4928003,8.89390863 95.7707782,9.45504424 C96.0487562,10.0161799 96.1894696,10.659318 96.1929228,11.3844778 L96.1929228,11.7315169 Z M94.3437743,11.415556 C94.3437743,10.6662241 94.2185998,10.0973274 93.968247,9.70884893 C93.7178942,9.32037043 93.359636,9.12613409 92.8934618,9.12613409 C91.9818323,9.12613409 91.5001261,9.809846 91.448329,11.1772903 L91.4431493,11.7315169 C91.4431493,12.4704893 91.565734,13.0385227 91.8109071,13.4356341 C92.0560802,13.8327454 92.4203813,14.0312982 92.9038212,14.0312982 C93.3630891,14.0312982 93.7170309,13.8361985 93.9656571,13.4459935 C94.2142834,13.0557884 94.3403212,12.4946612 94.3437743,11.762595 L94.3437743,11.415556 Z M95.0844696,7.24072784 L95.0844696,7.30806378 L93.7066728,7.30806378 L92.8831024,6.60362628 L92.0595321,7.30806378 L90.7128134,7.30806378 L90.7128134,7.22000909 L92.3858524,5.78523565 L93.3855321,5.78523565 L95.0844696,7.24072784 Z M103.428946,15.3469388 L101.621235,15.3469388 L98.9485165,10.6541419 L98.9485165,15.3469388 L97.1304462,15.3469388 L97.1304462,7.80531378 L98.9485165,7.80531378 L101.616056,12.4981107 L101.616056,7.80531378 L103.428946,7.80531378 L103.428946,15.3469388 Z M110.753024,14.414595 C110.47332,14.7253778 110.064129,14.9757269 109.525438,15.1656497 C108.986748,15.3555725 108.39627,15.4505325 107.753985,15.4505325 C106.766387,15.4505325 105.977355,15.1483871 105.386868,14.5440872 C104.796381,13.9397873 104.480423,13.0989598 104.438985,12.0215794 L104.433806,11.3689388 C104.433806,10.6265132 104.565023,9.97819545 104.827462,9.42396612 C105.089901,8.86973679 105.465424,8.44328011 105.954044,8.14458331 C106.442663,7.8458865 107.008107,7.69654034 107.650392,7.69654034 C108.589646,7.69654034 109.319112,7.91149522 109.838809,8.34141143 C110.358507,8.77132764 110.661516,9.4127392 110.747845,10.2656653 L108.99711,10.2656653 C108.934954,9.84438198 108.800283,9.54396311 108.593095,9.36439971 C108.385906,9.18483632 108.092393,9.09505596 107.712548,9.09505596 C107.256733,9.09505596 106.904518,9.28842903 106.655892,9.67518096 C106.407265,10.0619329 106.281227,10.6144274 106.277774,11.332681 L106.277774,11.7884935 C106.277774,12.5412785 106.406402,13.106722 106.663661,13.4848411 C106.92092,13.8629602 107.325795,14.0520169 107.878298,14.0520169 C108.351378,14.0520169 108.703593,13.9466976 108.934954,13.736056 L108.934954,12.5654466 L107.67111,12.5654466 L107.67111,11.3171419 L110.753024,11.3171419 L110.753024,14.414595 Z M120.371704,9.20900909 L118.108181,9.20900909 L118.108181,15.3469388 L116.29011,15.3469388 L116.29011,9.20900909 L114.068024,9.20900909 L114.068024,7.80531378 L120.371704,7.80531378 L120.371704,9.20900909 Z M123.899071,11.0788763 L125.287227,7.80531378 L127.250329,7.80531378 L124.821056,12.6379622 L124.821056,15.3469388 L122.977087,15.3469388 L122.977087,12.6379622 L120.552993,7.80531378 L122.505735,7.80531378 L123.899071,11.0788763 Z M130.596407,15.3469388 L130.596407,12.0578372 L129.71586,12.0578372 L129.71586,11.0685169 L130.596407,11.0685169 L130.596407,7.80531378 L133.025681,7.80531378 C133.692137,7.80531378 134.291248,7.95638648 134.823032,8.25853643 C135.354816,8.56068638 135.77005,8.98714305 136.068747,9.53791924 C136.367444,10.0886954 136.518516,10.7059354 136.52197,11.3896575 L136.52197,11.7366966 C136.52197,12.427325 136.376077,13.0462915 136.084286,13.5936146 C135.792496,14.1409376 135.381578,14.5691208 134.85152,14.8781771 C134.321463,15.1872333 133.730121,15.3434856 133.077477,15.3469388 L130.596407,15.3469388 Z M133.497032,12.0578372 L132.414477,12.0578372 L132.414477,13.9484232 L133.046399,13.9484232 C133.567824,13.9484232 133.968382,13.7628195 134.248087,13.3916067 C134.527791,13.020394 134.667642,12.4687627 134.667642,11.7366966 L134.667642,11.4103763 C134.667642,10.6817633 134.527791,10.1327219 134.248087,9.76323565 C133.968382,9.39374943 133.560918,9.20900909 133.025681,9.20900909 L132.414477,9.20900909 L132.414477,11.0685169 L133.497032,11.0685169 L133.497032,12.0578372 Z M139.391517,15.3469388 L137.578626,15.3469388 L137.578626,7.80531378 L139.391517,7.80531378 L139.391517,15.3469388 Z M145.332618,12.1510716 L142.473431,12.1510716 L142.473431,13.9484232 L145.850587,13.9484232 L145.850587,15.3469388 L140.65536,15.3469388 L140.65536,7.80531378 L145.860946,7.80531378 L145.860946,9.20900909 L142.473431,9.20900909 L142.473431,10.7991732 L145.332618,10.7991732 L145.332618,12.1510716 Z M145.617501,7.24072784 L145.617501,7.30806378 L144.239704,7.30806378 L143.416134,6.60362628 L142.592563,7.30806378 L141.245845,7.30806378 L141.245845,7.22000909 L142.918884,5.78523565 L143.918563,5.78523565 L145.617501,7.24072784 Z M142.47861,16.5382669 C142.47861,16.3138127 142.57098,16.1290723 142.755724,15.9840403 C142.940467,15.8390084 143.17096,15.7664935 143.447212,15.7664935 C143.723463,15.7664935 143.953957,15.8390084 144.1387,15.9840403 C144.323443,16.1290723 144.415813,16.3138127 144.415813,16.5382669 C144.415813,16.7627211 144.323443,16.9474615 144.1387,17.0924935 C143.953957,17.2375254 143.723463,17.3100403 143.447212,17.3100403 C143.17096,17.3100403 142.940467,17.2375254 142.755724,17.0924935 C142.57098,16.9474615 142.47861,16.7627211 142.47861,16.5382669 Z M152.889782,15.3469388 L151.082071,15.3469388 L148.409352,10.6541419 L148.409352,15.3469388 L146.591282,15.3469388 L146.591282,7.80531378 L148.409352,7.80531378 L151.076892,12.4981107 L151.076892,7.80531378 L152.889782,7.80531378 L152.889782,15.3469388 Z M158.499384,13.9484232 L161.664173,13.9484232 L161.664173,15.3469388 L156.681313,15.3469388 L156.681313,7.80531378 L158.499384,7.80531378 L158.499384,13.9484232 Z M168.34597,7.80531378 L168.34597,9.00700128 C168.598049,8.98973556 168.793149,8.93275957 168.931274,8.83607159 C169.0694,8.7393836 169.167813,8.60212326 169.226517,8.42428643 C169.28522,8.24644961 169.314571,7.90027729 169.314571,7.38575909 L170.376407,7.38575909 C170.376407,8.25595094 170.213249,8.87923377 169.886927,9.25562628 C169.560605,9.63201878 169.046958,9.83229803 168.34597,9.85647003 L168.34597,12.741556 C168.34597,13.300965 168.226838,13.7852609 167.988571,14.1944583 C167.750304,14.6036557 167.408448,14.9152971 166.962993,15.1293919 C166.517538,15.3434867 165.990941,15.4505325 165.383188,15.4505325 C164.464653,15.4505325 163.74123,15.2122693 163.212899,14.7357357 C162.684569,14.259202 162.415228,13.6065679 162.404868,12.7778138 L162.404868,7.80531378 L164.233298,7.80531378 L164.233298,12.8140716 C164.254017,13.6393726 164.63731,14.0520169 165.383188,14.0520169 C165.759581,14.0520169 166.044461,13.9484242 166.237837,13.7412357 C166.431213,13.5340471 166.527899,13.1973708 166.527899,12.7311966 L166.527899,7.80531378 L168.34597,7.80531378 Z M164.658032,16.5382669 C164.658032,16.3138127 164.750402,16.1290723 164.935145,15.9840403 C165.119889,15.8390084 165.350382,15.7664935 165.626634,15.7664935 C165.902885,15.7664935 166.133379,15.8390084 166.318122,15.9840403 C166.502865,16.1290723 166.595235,16.3138127 166.595235,16.5382669 C166.595235,16.7627211 166.502865,16.9474615 166.318122,17.0924935 C166.133379,17.2375254 165.902885,17.3100403 165.626634,17.3100403 C165.350382,17.3100403 165.119889,17.2375254 164.935145,17.0924935 C164.750402,16.9474615 164.658032,16.7627211 164.658032,16.5382669 Z M176.167298,12.7933528 C176.143126,13.3182305 176.001549,13.7818079 175.742563,14.1840989 C175.483578,14.58639 175.12014,14.8980314 174.652239,15.1190325 C174.184338,15.3400336 173.649973,15.4505325 173.049126,15.4505325 C172.058074,15.4505325 171.277676,15.1276686 170.707907,14.481931 C170.138139,13.8361934 169.853259,12.9245775 169.853259,11.747056 L169.853259,11.3741185 C169.853259,10.635146 169.981886,9.98855483 170.239145,9.43432549 C170.496405,8.88009616 170.866748,8.45191294 171.350188,8.14976299 C171.833628,7.84761305 172.393029,7.69654034 173.028407,7.69654034 C173.94349,7.69654034 174.678998,7.9373934 175.234954,8.41910674 C175.79091,8.90082009 176.106868,9.56467673 176.182837,10.4106966 L174.369946,10.4106966 C174.356134,9.95142867 174.240455,9.62165853 174.022907,9.42137628 C173.805359,9.22109402 173.473862,9.1209544 173.028407,9.1209544 C172.576046,9.1209544 172.244549,9.29015583 172.033907,9.62856378 C171.823265,9.96697172 171.712767,10.5073804 171.702407,11.249806 L171.702407,11.7833138 C171.702407,12.5878959 171.80341,13.1628355 172.005419,13.5081497 C172.207428,13.8534639 172.555327,14.0261185 173.049126,14.0261185 C173.466956,14.0261185 173.786367,13.9277054 174.007368,13.7308763 C174.228369,13.5340472 174.345774,13.2215425 174.359587,12.7933528 L176.167298,12.7933528 Z M182.056602,7.80531378 L183.740001,13.0523372 L185.41822,7.80531378 L187.811235,7.80531378 L187.811235,15.3469388 L185.987985,15.3469388 L185.987985,13.585845 L186.164095,9.98078253 L184.340845,15.3469388 L183.139157,15.3469388 L181.310727,9.97560284 L181.486837,13.585845 L181.486837,15.3469388 L179.668767,15.3469388 L179.668767,7.80531378 L182.056602,7.80531378 Z M190.903509,15.3469388 L189.090618,15.3469388 L189.090618,7.80531378 L190.903509,7.80531378 L190.903509,15.3469388 Z M196.84461,12.1510716 L193.985423,12.1510716 L193.985423,13.9484232 L197.362579,13.9484232 L197.362579,15.3469388 L192.167352,15.3469388 L192.167352,7.80531378 L197.372938,7.80531378 L197.372938,9.20900909 L193.985423,9.20900909 L193.985423,10.7991732 L196.84461,10.7991732 L196.84461,12.1510716 Z M196.803173,7.43237628 L195.679181,7.43237628 L194.933306,6.83153253 L194.19261,7.43237628 L193.053079,7.43237628 L194.508571,6.3032044 L195.35804,6.3032044 L196.803173,7.43237628 Z M193.431196,6.82117315 L192.519571,6.82117315 L191.281626,5.39675909 L192.524751,5.39675909 L193.431196,6.82117315 Z M204.401774,15.3469388 L202.594063,15.3469388 L199.921345,10.6541419 L199.921345,15.3469388 L198.103274,15.3469388 L198.103274,7.80531378 L199.921345,7.80531378 L202.588884,12.4981107 L202.588884,7.80531378 L204.401774,7.80531378 L204.401774,15.3469388 Z M214.113688,9.20900909 L211.850165,9.20900909 L211.850165,15.3469388 L210.032095,15.3469388 L210.032095,9.20900909 L207.810009,9.20900909 L207.810009,7.80531378 L214.113688,7.80531378 L214.113688,9.20900909 Z M217.682493,12.6845794 L216.698352,12.6845794 L216.698352,15.3469388 L214.880282,15.3469388 L214.880282,7.80531378 L217.848243,7.80531378 C218.742607,7.80531378 219.441858,8.00386648 219.946017,8.40097784 C220.450175,8.7980892 220.702251,9.3592164 220.702251,10.0843763 C220.702251,10.6092539 220.596068,11.0443433 220.3837,11.3896575 C220.171332,11.7349718 219.838972,12.0146721 219.38661,12.2287669 L220.961235,15.2692435 L220.961235,15.3469388 L219.013673,15.3469388 L217.682493,12.6845794 Z M216.698352,11.2808841 L217.848243,11.2808841 C218.193557,11.2808841 218.453402,11.1902405 218.627786,11.0089505 C218.80217,10.8276605 218.88936,10.5747216 218.88936,10.2501263 C218.88936,9.9255309 218.801306,9.67086548 218.625196,9.48612237 C218.449086,9.30137926 218.190104,9.20900909 217.848243,9.20900909 L216.698352,9.20900909 L216.698352,11.2808841 Z M227.715548,7.80531378 L227.715548,12.741556 C227.715548,13.300965 227.596416,13.7852609 227.358149,14.1944583 C227.119883,14.6036557 226.778027,14.9152971 226.332571,15.1293919 C225.887116,15.3434867 225.36052,15.4505325 224.752767,15.4505325 C223.834231,15.4505325 223.110808,15.2122693 222.582477,14.7357357 C222.054147,14.259202 221.784806,13.6065679 221.774446,12.7778138 L221.774446,7.80531378 L223.602876,7.80531378 L223.602876,12.8140716 C223.623595,13.6393726 224.006888,14.0520169 224.752767,14.0520169 C225.129159,14.0520169 225.414039,13.9484242 225.607415,13.7412357 C225.800791,13.5340471 225.897477,13.1973708 225.897477,12.7311966 L225.897477,7.80531378 L227.715548,7.80531378 Z M235.148399,15.3469388 L233.340688,15.3469388 L230.66797,10.6541419 L230.66797,15.3469388 L228.849899,15.3469388 L228.849899,7.80531378 L230.66797,7.80531378 L233.335509,12.4981107 L233.335509,7.80531378 L235.148399,7.80531378 L235.148399,15.3469388 Z M242.472477,14.414595 C242.192773,14.7253778 241.783582,14.9757269 241.244892,15.1656497 C240.706201,15.3555725 240.115723,15.4505325 239.473438,15.4505325 C238.48584,15.4505325 237.696809,15.1483871 237.106321,14.5440872 C236.515834,13.9397873 236.199876,13.0989598 236.158438,12.0215794 L236.153259,11.3689388 C236.153259,10.6265132 236.284476,9.97819545 236.546915,9.42396612 C236.809354,8.86973679 237.184877,8.44328011 237.673497,8.14458331 C238.162117,7.8458865 238.72756,7.69654034 239.369845,7.69654034 C240.309099,7.69654034 241.038565,7.91149522 241.558263,8.34141143 C242.077961,8.77132764 242.380969,9.4127392 242.467298,10.2656653 L240.716563,10.2656653 C240.654407,9.84438198 240.519736,9.54396311 240.312548,9.36439971 C240.105359,9.18483632 239.811847,9.09505596 239.432001,9.09505596 C238.976186,9.09505596 238.623971,9.28842903 238.375345,9.67518096 C238.126718,10.0619329 238.000681,10.6144274 237.997227,11.332681 L237.997227,11.7884935 C237.997227,12.5412785 238.125855,13.106722 238.383114,13.4848411 C238.640373,13.8629602 239.045248,14.0520169 239.597751,14.0520169 C240.070831,14.0520169 240.423047,13.9466976 240.654407,13.736056 L240.654407,12.5654466 L239.390563,12.5654466 L239.390563,11.3171419 L242.472477,11.3171419 L242.472477,14.414595 Z" id="TỔNG-CÔNG-TY-ĐIỆN-LỰ" fill="#002992"></path>
                <path d="M55.3903728,25.4707254 L56.6306928,25.4707254 C56.5926126,25.1334438 56.5001335,24.8342467 56.3532528,24.5731254 C56.206372,24.3120041 56.0200539,24.0930463 55.7942928,23.9162454 C55.5685316,23.7394446 55.3128542,23.6048059 55.0272528,23.5123254 C54.7416513,23.419845 54.4383744,23.3736054 54.1174128,23.3736054 C53.6713305,23.3736054 53.2701345,23.4524846 52.9138128,23.6102454 C52.557491,23.7680062 52.256934,23.985604 52.0121328,24.2630454 C51.7673315,24.5404868 51.5796534,24.8655236 51.4490928,25.2381654 C51.3185321,25.6108073 51.2532528,26.0147233 51.2532528,26.4499254 C51.2532528,26.8742476 51.3185321,27.2700036 51.4490928,27.6372054 C51.5796534,28.0044073 51.7673315,28.3240041 52.0121328,28.5960054 C52.256934,28.8680068 52.557491,29.0815247 52.9138128,29.2365654 C53.2701345,29.3916062 53.6713305,29.4691254 54.1174128,29.4691254 C54.4764546,29.4691254 54.8055713,29.414726 55.1047728,29.3059254 C55.4039743,29.1971249 55.6650916,29.0393665 55.8881328,28.8326454 C56.1111739,28.6259244 56.2906921,28.3756869 56.4266928,28.0819254 C56.5626934,27.788164 56.6470126,27.4590473 56.6796528,27.0945654 L55.4393328,27.0945654 C55.3903725,27.4862474 55.2557339,27.8017642 55.0354128,28.0411254 C54.8150917,28.2804866 54.5090947,28.4001654 54.1174128,28.4001654 C53.8290913,28.4001654 53.5842938,28.344406 53.3830128,28.2328854 C53.1817318,28.1213649 53.0185334,27.9731264 52.8934128,27.7881654 C52.7682921,27.6032045 52.677173,27.3951266 52.6200528,27.1639254 C52.5629325,26.9327243 52.5343728,26.6947267 52.5343728,26.4499254 C52.5343728,26.1942442 52.5629325,25.9467266 52.6200528,25.7073654 C52.677173,25.4680042 52.7682921,25.2544864 52.8934128,25.0668054 C53.0185334,24.8791245 53.1817318,24.729526 53.3830128,24.6180054 C53.5842938,24.5064849 53.8290913,24.4507254 54.1174128,24.4507254 C54.2751736,24.4507254 54.426132,24.4765652 54.5702928,24.5282454 C54.7144535,24.5799257 54.8436522,24.652005 54.9578928,24.7444854 C55.0721333,24.8369659 55.1673324,24.9444048 55.2434928,25.0668054 C55.3196531,25.189206 55.3686127,25.3238447 55.3903728,25.4707254 Z M58.2871725,23.5123254 L58.2871725,29.3385654 L62.7098925,29.3385654 L62.7098925,28.2614454 L59.5682925,28.2614454 L59.5682925,26.8334454 L62.3916525,26.8334454 L62.3916525,25.8379254 L59.5682925,25.8379254 L59.5682925,24.5894454 L62.6446125,24.5894454 L62.6446125,23.5123254 L58.2871725,23.5123254 Z M64.3092523,23.5123254 L64.3092523,29.3385654 L65.5087723,29.3385654 L65.5087723,25.4380854 L65.5250923,25.4380854 L67.9486123,29.3385654 L69.2297323,29.3385654 L69.2297323,23.5123254 L68.0302123,23.5123254 L68.0302123,27.4209654 L68.0138923,27.4209654 L65.5822123,23.5123254 L64.3092523,23.5123254 Z M72.3794921,24.5894454 L72.3794921,29.3385654 L73.6606121,29.3385654 L73.6606121,24.5894454 L75.4068521,24.5894454 L75.4068521,23.5123254 L70.6332521,23.5123254 L70.6332521,24.5894454 L72.3794921,24.5894454 Z M78.0914919,26.1480054 L79.4950119,26.1480054 C79.7887734,26.1480054 80.0090912,26.0827261 80.1559719,25.9521654 C80.3028526,25.8216048 80.3762919,25.6094469 80.3762919,25.3156854 C80.3762919,25.032804 80.3028526,24.8274461 80.1559719,24.6996054 C80.0090912,24.5717648 79.7887734,24.5078454 79.4950119,24.5078454 L78.0914919,24.5078454 L78.0914919,26.1480054 Z M76.8103719,23.5123254 L79.9519719,23.5123254 C80.2130932,23.5123254 80.4483709,23.554485 80.6578119,23.6388054 C80.867253,23.7231259 81.0467712,23.8387247 81.1963719,23.9856054 C81.3459727,24.1324862 81.4602115,24.3024845 81.5390919,24.4956054 C81.6179723,24.6887264 81.6574119,24.8968043 81.6574119,25.1198454 C81.6574119,25.4625672 81.5853326,25.7590442 81.4411719,26.0092854 C81.2970112,26.2595267 81.0617335,26.4499248 80.7353319,26.5804854 L80.7353319,26.5968054 C80.8930927,26.6403257 81.0236514,26.706965 81.1270119,26.7967254 C81.2303724,26.8864859 81.3146916,26.9925648 81.3799719,27.1149654 C81.4452522,27.237366 81.4928518,27.3720047 81.5227719,27.5188854 C81.5526921,27.6657662 81.5730919,27.8126447 81.5839719,27.9595254 C81.5894119,28.0520059 81.5948519,28.1608048 81.6002919,28.2859254 C81.6057319,28.4110461 81.6152518,28.5388848 81.6288519,28.6694454 C81.642452,28.8000061 81.6642118,28.9237649 81.6941319,29.0407254 C81.7240521,29.157686 81.7689316,29.256965 81.8287719,29.3385654 L80.5476519,29.3385654 C80.4769316,29.1536045 80.433412,28.9332867 80.4170919,28.6776054 C80.4007718,28.4219242 80.3762921,28.1771266 80.3436519,27.9432054 C80.3001317,27.6385639 80.2076526,27.4155261 80.0662119,27.2740854 C79.9247712,27.1326447 79.6935735,27.0619254 79.3726119,27.0619254 L78.0914919,27.0619254 L78.0914919,29.3385654 L76.8103719,29.3385654 L76.8103719,23.5123254 Z M84.9050917,27.0864054 L86.4146917,27.0864054 L85.6802917,24.9484854 L85.6639717,24.9484854 L84.9050917,27.0864054 Z M85.0274917,23.5123254 L86.3412517,23.5123254 L88.5199717,29.3385654 L87.1898917,29.3385654 L86.7492517,28.0411254 L84.5705317,28.0411254 L84.1135717,29.3385654 L82.8242917,29.3385654 L85.0274917,23.5123254 Z M89.7602915,23.5123254 L89.7602915,29.3385654 L93.8810915,29.3385654 L93.8810915,28.2614454 L91.0414115,28.2614454 L91.0414115,23.5123254 L89.7602915,23.5123254 Z M99.6175711,26.2540854 L100.613091,26.2540854 C100.759972,26.2540854 100.90141,26.2432055 101.037411,26.2214454 C101.173412,26.1996853 101.293091,26.1575257 101.396451,26.0949654 C101.499812,26.0324051 101.582771,25.944006 101.645331,25.8297654 C101.707891,25.7155249 101.739171,25.5659264 101.739171,25.3809654 C101.739171,25.1960045 101.707891,25.046406 101.645331,24.9321654 C101.582771,24.8179249 101.499812,24.7295257 101.396451,24.6669654 C101.293091,24.6044051 101.173412,24.5622455 101.037411,24.5404854 C100.90141,24.5187253 100.759972,24.5078454 100.613091,24.5078454 L99.6175711,24.5078454 L99.6175711,26.2540854 Z M98.3364511,23.5123254 L100.963971,23.5123254 C101.328453,23.5123254 101.63853,23.5653649 101.894211,23.6714454 C102.149892,23.777526 102.35797,23.9176046 102.518451,24.0916854 C102.678932,24.2657663 102.795891,24.4643243 102.869331,24.6873654 C102.942771,24.9104066 102.979491,25.1416042 102.979491,25.3809654 C102.979491,25.6148866 102.942771,25.8447243 102.869331,26.0704854 C102.795891,26.2962466 102.678932,26.4961646 102.518451,26.6702454 C102.35797,26.8443263 102.149892,26.9844049 101.894211,27.0904854 C101.63853,27.196566 101.328453,27.2496054 100.963971,27.2496054 L99.6175711,27.2496054 L99.6175711,29.3385654 L98.3364511,29.3385654 L98.3364511,23.5123254 Z M105.541731,26.4499254 C105.541731,26.6947267 105.570291,26.9327243 105.627411,27.1639254 C105.684531,27.3951266 105.77565,27.6032045 105.900771,27.7881654 C106.025891,27.9731264 106.18909,28.1213649 106.390371,28.2328854 C106.591652,28.344406 106.836449,28.4001654 107.124771,28.4001654 C107.413092,28.4001654 107.65789,28.344406 107.859171,28.2328854 C108.060452,28.1213649 108.22365,27.9731264 108.348771,27.7881654 C108.473891,27.6032045 108.565011,27.3951266 108.622131,27.1639254 C108.679251,26.9327243 108.707811,26.6947267 108.707811,26.4499254 C108.707811,26.1942442 108.679251,25.9467266 108.622131,25.7073654 C108.565011,25.4680042 108.473891,25.2544864 108.348771,25.0668054 C108.22365,24.8791245 108.060452,24.729526 107.859171,24.6180054 C107.65789,24.5064849 107.413092,24.4507254 107.124771,24.4507254 C106.836449,24.4507254 106.591652,24.5064849 106.390371,24.6180054 C106.18909,24.729526 106.025891,24.8791245 105.900771,25.0668054 C105.77565,25.2544864 105.684531,25.4680042 105.627411,25.7073654 C105.570291,25.9467266 105.541731,26.1942442 105.541731,26.4499254 Z M104.260611,26.4499254 C104.260611,26.0147233 104.32589,25.6108073 104.456451,25.2381654 C104.587011,24.8655236 104.77469,24.5404868 105.019491,24.2630454 C105.264292,23.985604 105.564849,23.7680062 105.921171,23.6102454 C106.277493,23.4524846 106.678689,23.3736054 107.124771,23.3736054 C107.576293,23.3736054 107.978849,23.4524846 108.332451,23.6102454 C108.686053,23.7680062 108.98525,23.985604 109.230051,24.2630454 C109.474852,24.5404868 109.66253,24.8655236 109.793091,25.2381654 C109.923651,25.6108073 109.988931,26.0147233 109.988931,26.4499254 C109.988931,26.8742476 109.923651,27.2700036 109.793091,27.6372054 C109.66253,28.0044073 109.474852,28.3240041 109.230051,28.5960054 C108.98525,28.8680068 108.686053,29.0815247 108.332451,29.2365654 C107.978849,29.3916062 107.576293,29.4691254 107.124771,29.4691254 C106.678689,29.4691254 106.277493,29.3916062 105.921171,29.2365654 C105.564849,29.0815247 105.264292,28.8680068 105.019491,28.5960054 C104.77469,28.3240041 104.587011,28.0044073 104.456451,27.6372054 C104.32589,27.2700036 104.260611,26.8742476 104.260611,26.4499254 Z M117.145251,29.3385654 L118.711971,23.5123254 L117.455331,23.5123254 L116.500611,27.5270454 L116.484291,27.5270454 L115.488771,23.5123254 L114.289251,23.5123254 L113.277411,27.4780854 L113.261091,27.4780854 L112.339011,23.5123254 L111.057891,23.5123254 L112.600131,29.3385654 L113.897571,29.3385654 L114.868611,25.3728054 L114.884931,25.3728054 L115.872291,29.3385654 L117.145251,29.3385654 Z M120.03389,23.5123254 L120.03389,29.3385654 L124.45661,29.3385654 L124.45661,28.2614454 L121.31501,28.2614454 L121.31501,26.8334454 L124.13837,26.8334454 L124.13837,25.8379254 L121.31501,25.8379254 L121.31501,24.5894454 L124.39133,24.5894454 L124.39133,23.5123254 L120.03389,23.5123254 Z M127.33709,26.1480054 L128.74061,26.1480054 C129.034372,26.1480054 129.254689,26.0827261 129.40157,25.9521654 C129.548451,25.8216048 129.62189,25.6094469 129.62189,25.3156854 C129.62189,25.032804 129.548451,24.8274461 129.40157,24.6996054 C129.254689,24.5717648 129.034372,24.5078454 128.74061,24.5078454 L127.33709,24.5078454 L127.33709,26.1480054 Z M126.05597,23.5123254 L129.19757,23.5123254 C129.458692,23.5123254 129.693969,23.554485 129.90341,23.6388054 C130.112851,23.7231259 130.292369,23.8387247 130.44197,23.9856054 C130.591571,24.1324862 130.70581,24.3024845 130.78469,24.4956054 C130.863571,24.6887264 130.90301,24.8968043 130.90301,25.1198454 C130.90301,25.4625672 130.830931,25.7590442 130.68677,26.0092854 C130.542609,26.2595267 130.307332,26.4499248 129.98093,26.5804854 L129.98093,26.5968054 C130.138691,26.6403257 130.26925,26.706965 130.37261,26.7967254 C130.475971,26.8864859 130.56029,26.9925648 130.62557,27.1149654 C130.690851,27.237366 130.73845,27.3720047 130.76837,27.5188854 C130.79829,27.6657662 130.81869,27.8126447 130.82957,27.9595254 C130.83501,28.0520059 130.84045,28.1608048 130.84589,28.2859254 C130.85133,28.4110461 130.86085,28.5388848 130.87445,28.6694454 C130.88805,28.8000061 130.90981,28.9237649 130.93973,29.0407254 C130.96965,29.157686 131.01453,29.256965 131.07437,29.3385654 L129.79325,29.3385654 C129.72253,29.1536045 129.67901,28.9332867 129.66269,28.6776054 C129.64637,28.4219242 129.62189,28.1771266 129.58925,27.9432054 C129.54573,27.6385639 129.453251,27.4155261 129.31181,27.2740854 C129.170369,27.1326447 128.939172,27.0619254 128.61821,27.0619254 L127.33709,27.0619254 L127.33709,29.3385654 L126.05597,29.3385654 L126.05597,23.5123254 Z M139.56893,25.4707254 L140.80925,25.4707254 C140.77117,25.1334438 140.678691,24.8342467 140.53181,24.5731254 C140.384929,24.3120041 140.198611,24.0930463 139.97285,23.9162454 C139.747089,23.7394446 139.491411,23.6048059 139.20581,23.5123254 C138.920208,23.419845 138.616931,23.3736054 138.29597,23.3736054 C137.849888,23.3736054 137.448692,23.4524846 137.09237,23.6102454 C136.736048,23.7680062 136.435491,23.985604 136.19069,24.2630454 C135.945889,24.5404868 135.75821,24.8655236 135.62765,25.2381654 C135.497089,25.6108073 135.43181,26.0147233 135.43181,26.4499254 C135.43181,26.8742476 135.497089,27.2700036 135.62765,27.6372054 C135.75821,28.0044073 135.945889,28.3240041 136.19069,28.5960054 C136.435491,28.8680068 136.736048,29.0815247 137.09237,29.2365654 C137.448692,29.3916062 137.849888,29.4691254 138.29597,29.4691254 C138.655012,29.4691254 138.984128,29.414726 139.28333,29.3059254 C139.582531,29.1971249 139.843649,29.0393665 140.06669,28.8326454 C140.289731,28.6259244 140.469249,28.3756869 140.60525,28.0819254 C140.74125,27.788164 140.82557,27.4590473 140.85821,27.0945654 L139.61789,27.0945654 C139.56893,27.4862474 139.434291,27.8017642 139.21397,28.0411254 C138.993649,28.2804866 138.687652,28.4001654 138.29597,28.4001654 C138.007648,28.4001654 137.762851,28.344406 137.56157,28.2328854 C137.360289,28.1213649 137.19709,27.9731264 137.07197,27.7881654 C136.946849,27.6032045 136.85573,27.3951266 136.79861,27.1639254 C136.741489,26.9327243 136.71293,26.6947267 136.71293,26.4499254 C136.71293,26.1942442 136.741489,25.9467266 136.79861,25.7073654 C136.85573,25.4680042 136.946849,25.2544864 137.07197,25.0668054 C137.19709,24.8791245 137.360289,24.729526 137.56157,24.6180054 C137.762851,24.5064849 138.007648,24.4507254 138.29597,24.4507254 C138.453731,24.4507254 138.604689,24.4765652 138.74885,24.5282454 C138.89301,24.5799257 139.022209,24.652005 139.13645,24.7444854 C139.25069,24.8369659 139.345889,24.9444048 139.42205,25.0668054 C139.49821,25.189206 139.54717,25.3238447 139.56893,25.4707254 Z M143.49389,26.4499254 C143.49389,26.6947267 143.522449,26.9327243 143.57957,27.1639254 C143.63669,27.3951266 143.727809,27.6032045 143.85293,27.7881654 C143.97805,27.9731264 144.141249,28.1213649 144.34253,28.2328854 C144.543811,28.344406 144.788608,28.4001654 145.07693,28.4001654 C145.365251,28.4001654 145.610049,28.344406 145.81133,28.2328854 C146.012611,28.1213649 146.175809,27.9731264 146.30093,27.7881654 C146.42605,27.6032045 146.517169,27.3951266 146.57429,27.1639254 C146.63141,26.9327243 146.65997,26.6947267 146.65997,26.4499254 C146.65997,26.1942442 146.63141,25.9467266 146.57429,25.7073654 C146.517169,25.4680042 146.42605,25.2544864 146.30093,25.0668054 C146.175809,24.8791245 146.012611,24.729526 145.81133,24.6180054 C145.610049,24.5064849 145.365251,24.4507254 145.07693,24.4507254 C144.788608,24.4507254 144.543811,24.5064849 144.34253,24.6180054 C144.141249,24.729526 143.97805,24.8791245 143.85293,25.0668054 C143.727809,25.2544864 143.63669,25.4680042 143.57957,25.7073654 C143.522449,25.9467266 143.49389,26.1942442 143.49389,26.4499254 Z M142.21277,26.4499254 C142.21277,26.0147233 142.278049,25.6108073 142.40861,25.2381654 C142.53917,24.8655236 142.726848,24.5404868 142.97165,24.2630454 C143.216451,23.985604 143.517008,23.7680062 143.87333,23.6102454 C144.229651,23.4524846 144.630847,23.3736054 145.07693,23.3736054 C145.528452,23.3736054 145.931008,23.4524846 146.28461,23.6102454 C146.638211,23.7680062 146.937408,23.985604 147.18221,24.2630454 C147.427011,24.5404868 147.614689,24.8655236 147.74525,25.2381654 C147.87581,25.6108073 147.94109,26.0147233 147.94109,26.4499254 C147.94109,26.8742476 147.87581,27.2700036 147.74525,27.6372054 C147.614689,28.0044073 147.427011,28.3240041 147.18221,28.5960054 C146.937408,28.8680068 146.638211,29.0815247 146.28461,29.2365654 C145.931008,29.3916062 145.528452,29.4691254 145.07693,29.4691254 C144.630847,29.4691254 144.229651,29.3916062 143.87333,29.2365654 C143.517008,29.0815247 143.216451,28.8680068 142.97165,28.5960054 C142.726848,28.3240041 142.53917,28.0044073 142.40861,27.6372054 C142.278049,27.2700036 142.21277,26.8742476 142.21277,26.4499254 Z M150.829729,26.1480054 L152.233249,26.1480054 C152.527011,26.1480054 152.747329,26.0827261 152.894209,25.9521654 C153.04109,25.8216048 153.114529,25.6094469 153.114529,25.3156854 C153.114529,25.032804 153.04109,24.8274461 152.894209,24.6996054 C152.747329,24.5717648 152.527011,24.5078454 152.233249,24.5078454 L150.829729,24.5078454 L150.829729,26.1480054 Z M149.548609,23.5123254 L152.690209,23.5123254 C152.951331,23.5123254 153.186608,23.554485 153.396049,23.6388054 C153.60549,23.7231259 153.785009,23.8387247 153.934609,23.9856054 C154.08421,24.1324862 154.198449,24.3024845 154.277329,24.4956054 C154.35621,24.6887264 154.395649,24.8968043 154.395649,25.1198454 C154.395649,25.4625672 154.32357,25.7590442 154.179409,26.0092854 C154.035249,26.2595267 153.799971,26.4499248 153.473569,26.5804854 L153.473569,26.5968054 C153.63133,26.6403257 153.761889,26.706965 153.865249,26.7967254 C153.96861,26.8864859 154.052929,26.9925648 154.118209,27.1149654 C154.18349,27.237366 154.231089,27.3720047 154.261009,27.5188854 C154.290929,27.6657662 154.311329,27.8126447 154.322209,27.9595254 C154.327649,28.0520059 154.333089,28.1608048 154.338529,28.2859254 C154.343969,28.4110461 154.353489,28.5388848 154.367089,28.6694454 C154.380689,28.8000061 154.402449,28.9237649 154.432369,29.0407254 C154.462289,29.157686 154.507169,29.256965 154.567009,29.3385654 L153.285889,29.3385654 C153.215169,29.1536045 153.171649,28.9332867 153.155329,28.6776054 C153.139009,28.4219242 153.11453,28.1771266 153.081889,27.9432054 C153.038369,27.6385639 152.94589,27.4155261 152.804449,27.2740854 C152.663009,27.1326447 152.431811,27.0619254 152.110849,27.0619254 L150.829729,27.0619254 L150.829729,29.3385654 L149.548609,29.3385654 L149.548609,23.5123254 Z M157.455649,26.2540854 L158.451169,26.2540854 C158.59805,26.2540854 158.739488,26.2432055 158.875489,26.2214454 C159.01149,26.1996853 159.131169,26.1575257 159.234529,26.0949654 C159.33789,26.0324051 159.420849,25.944006 159.483409,25.8297654 C159.545969,25.7155249 159.577249,25.5659264 159.577249,25.3809654 C159.577249,25.1960045 159.545969,25.046406 159.483409,24.9321654 C159.420849,24.8179249 159.33789,24.7295257 159.234529,24.6669654 C159.131169,24.6044051 159.01149,24.5622455 158.875489,24.5404854 C158.739488,24.5187253 158.59805,24.5078454 158.451169,24.5078454 L157.455649,24.5078454 L157.455649,26.2540854 Z M156.174529,23.5123254 L158.802049,23.5123254 C159.166531,23.5123254 159.476608,23.5653649 159.732289,23.6714454 C159.98797,23.777526 160.196048,23.9176046 160.356529,24.0916854 C160.51701,24.2657663 160.633969,24.4643243 160.707409,24.6873654 C160.780849,24.9104066 160.817569,25.1416042 160.817569,25.3809654 C160.817569,25.6148866 160.780849,25.8447243 160.707409,26.0704854 C160.633969,26.2962466 160.51701,26.4961646 160.356529,26.6702454 C160.196048,26.8443263 159.98797,26.9844049 159.732289,27.0904854 C159.476608,27.196566 159.166531,27.2496054 158.802049,27.2496054 L157.455649,27.2496054 L157.455649,29.3385654 L156.174529,29.3385654 L156.174529,23.5123254 Z M163.379809,26.4499254 C163.379809,26.6947267 163.408369,26.9327243 163.465489,27.1639254 C163.522609,27.3951266 163.613728,27.6032045 163.738849,27.7881654 C163.86397,27.9731264 164.027168,28.1213649 164.228449,28.2328854 C164.42973,28.344406 164.674527,28.4001654 164.962849,28.4001654 C165.25117,28.4001654 165.495968,28.344406 165.697249,28.2328854 C165.89853,28.1213649 166.061728,27.9731264 166.186849,27.7881654 C166.31197,27.6032045 166.403089,27.3951266 166.460209,27.1639254 C166.517329,26.9327243 166.545889,26.6947267 166.545889,26.4499254 C166.545889,26.1942442 166.517329,25.9467266 166.460209,25.7073654 C166.403089,25.4680042 166.31197,25.2544864 166.186849,25.0668054 C166.061728,24.8791245 165.89853,24.729526 165.697249,24.6180054 C165.495968,24.5064849 165.25117,24.4507254 164.962849,24.4507254 C164.674527,24.4507254 164.42973,24.5064849 164.228449,24.6180054 C164.027168,24.729526 163.86397,24.8791245 163.738849,25.0668054 C163.613728,25.2544864 163.522609,25.4680042 163.465489,25.7073654 C163.408369,25.9467266 163.379809,26.1942442 163.379809,26.4499254 Z M162.098689,26.4499254 C162.098689,26.0147233 162.163968,25.6108073 162.294529,25.2381654 C162.42509,24.8655236 162.612768,24.5404868 162.857569,24.2630454 C163.10237,23.985604 163.402927,23.7680062 163.759249,23.6102454 C164.115571,23.4524846 164.516767,23.3736054 164.962849,23.3736054 C165.414371,23.3736054 165.816927,23.4524846 166.170529,23.6102454 C166.524131,23.7680062 166.823328,23.985604 167.068129,24.2630454 C167.31293,24.5404868 167.500608,24.8655236 167.631169,25.2381654 C167.76173,25.6108073 167.827009,26.0147233 167.827009,26.4499254 C167.827009,26.8742476 167.76173,27.2700036 167.631169,27.6372054 C167.500608,28.0044073 167.31293,28.3240041 167.068129,28.5960054 C166.823328,28.8680068 166.524131,29.0815247 166.170529,29.2365654 C165.816927,29.3916062 165.414371,29.4691254 164.962849,29.4691254 C164.516767,29.4691254 164.115571,29.3916062 163.759249,29.2365654 C163.402927,29.0815247 163.10237,28.8680068 162.857569,28.5960054 C162.612768,28.3240041 162.42509,28.0044073 162.294529,27.6372054 C162.163968,27.2700036 162.098689,26.8742476 162.098689,26.4499254 Z M170.715649,26.1480054 L172.119169,26.1480054 C172.41293,26.1480054 172.633248,26.0827261 172.780129,25.9521654 C172.927009,25.8216048 173.000449,25.6094469 173.000449,25.3156854 C173.000449,25.032804 172.927009,24.8274461 172.780129,24.6996054 C172.633248,24.5717648 172.41293,24.5078454 172.119169,24.5078454 L170.715649,24.5078454 L170.715649,26.1480054 Z M169.434529,23.5123254 L172.576129,23.5123254 C172.83725,23.5123254 173.072528,23.554485 173.281969,23.6388054 C173.49141,23.7231259 173.670928,23.8387247 173.820529,23.9856054 C173.970129,24.1324862 174.084368,24.3024845 174.163249,24.4956054 C174.242129,24.6887264 174.281569,24.8968043 174.281569,25.1198454 C174.281569,25.4625672 174.209489,25.7590442 174.065329,26.0092854 C173.921168,26.2595267 173.68589,26.4499248 173.359489,26.5804854 L173.359489,26.5968054 C173.517249,26.6403257 173.647808,26.706965 173.751169,26.7967254 C173.854529,26.8864859 173.938848,26.9925648 174.004129,27.1149654 C174.069409,27.237366 174.117009,27.3720047 174.146929,27.5188854 C174.176849,27.6657662 174.197249,27.8126447 174.208129,27.9595254 C174.213569,28.0520059 174.219009,28.1608048 174.224449,28.2859254 C174.229889,28.4110461 174.239409,28.5388848 174.253009,28.6694454 C174.266609,28.8000061 174.288369,28.9237649 174.318289,29.0407254 C174.348209,29.157686 174.393088,29.256965 174.452929,29.3385654 L173.171809,29.3385654 C173.101088,29.1536045 173.057569,28.9332867 173.041249,28.6776054 C173.024929,28.4219242 173.000449,28.1771266 172.967809,27.9432054 C172.924288,27.6385639 172.831809,27.4155261 172.690369,27.2740854 C172.548928,27.1326447 172.31773,27.0619254 171.996769,27.0619254 L170.715649,27.0619254 L170.715649,29.3385654 L169.434529,29.3385654 L169.434529,23.5123254 Z M177.529248,27.0864054 L179.038848,27.0864054 L178.304448,24.9484854 L178.288128,24.9484854 L177.529248,27.0864054 Z M177.651648,23.5123254 L178.965408,23.5123254 L181.144128,29.3385654 L179.814048,29.3385654 L179.373408,28.0411254 L177.194688,28.0411254 L176.737728,29.3385654 L175.448448,29.3385654 L177.651648,23.5123254 Z M182.923008,24.5894454 L182.923008,29.3385654 L184.204128,29.3385654 L184.204128,24.5894454 L185.950368,24.5894454 L185.950368,23.5123254 L181.176768,23.5123254 L181.176768,24.5894454 L182.923008,24.5894454 Z M187.353888,23.5123254 L187.353888,29.3385654 L188.635008,29.3385654 L188.635008,23.5123254 L187.353888,23.5123254 Z M191.523648,26.4499254 C191.523648,26.6947267 191.552208,26.9327243 191.609328,27.1639254 C191.666448,27.3951266 191.757567,27.6032045 191.882688,27.7881654 C192.007808,27.9731264 192.171007,28.1213649 192.372288,28.2328854 C192.573569,28.344406 192.818366,28.4001654 193.106688,28.4001654 C193.395009,28.4001654 193.639807,28.344406 193.841088,28.2328854 C194.042369,28.1213649 194.205567,27.9731264 194.330688,27.7881654 C194.455808,27.6032045 194.546928,27.3951266 194.604048,27.1639254 C194.661168,26.9327243 194.689728,26.6947267 194.689728,26.4499254 C194.689728,26.1942442 194.661168,25.9467266 194.604048,25.7073654 C194.546928,25.4680042 194.455808,25.2544864 194.330688,25.0668054 C194.205567,24.8791245 194.042369,24.729526 193.841088,24.6180054 C193.639807,24.5064849 193.395009,24.4507254 193.106688,24.4507254 C192.818366,24.4507254 192.573569,24.5064849 192.372288,24.6180054 C192.171007,24.729526 192.007808,24.8791245 191.882688,25.0668054 C191.757567,25.2544864 191.666448,25.4680042 191.609328,25.7073654 C191.552208,25.9467266 191.523648,26.1942442 191.523648,26.4499254 Z M190.242528,26.4499254 C190.242528,26.0147233 190.307807,25.6108073 190.438368,25.2381654 C190.568928,24.8655236 190.756607,24.5404868 191.001408,24.2630454 C191.246209,23.985604 191.546766,23.7680062 191.903088,23.6102454 C192.25941,23.4524846 192.660606,23.3736054 193.106688,23.3736054 C193.55821,23.3736054 193.960766,23.4524846 194.314368,23.6102454 C194.66797,23.7680062 194.967167,23.985604 195.211968,24.2630454 C195.456769,24.5404868 195.644447,24.8655236 195.775008,25.2381654 C195.905568,25.6108073 195.970848,26.0147233 195.970848,26.4499254 C195.970848,26.8742476 195.905568,27.2700036 195.775008,27.6372054 C195.644447,28.0044073 195.456769,28.3240041 195.211968,28.5960054 C194.967167,28.8680068 194.66797,29.0815247 194.314368,29.2365654 C193.960766,29.3916062 193.55821,29.4691254 193.106688,29.4691254 C192.660606,29.4691254 192.25941,29.3916062 191.903088,29.2365654 C191.546766,29.0815247 191.246209,28.8680068 191.001408,28.5960054 C190.756607,28.3240041 190.568928,28.0044073 190.438368,27.6372054 C190.307807,27.2700036 190.242528,26.8742476 190.242528,26.4499254 Z M197.578368,23.5123254 L197.578368,29.3385654 L198.777888,29.3385654 L198.777888,25.4380854 L198.794208,25.4380854 L201.217728,29.3385654 L202.498848,29.3385654 L202.498848,23.5123254 L201.299328,23.5123254 L201.299328,27.4209654 L201.283008,27.4209654 L198.851328,23.5123254 L197.578368,23.5123254 Z" id="CENTRAL-POWER-CORPOR" fill="#F11B23"></path>
            </g>
        </g>
    </g>
</svg>