<?xml version="1.0" encoding="UTF-8"?>
<svg width="20px" height="16px" viewBox="0 0 20 16" version="1.1" xmlns="http://www.w3.org/2000/svg" xmlns:xlink="http://www.w3.org/1999/xlink">
    <!-- Generator: Sketch 50.2 (55047) - http://www.bohemiancoding.com/sketch -->
    <title>qua tri tin bai</title>
    <desc>Created with Sketch.</desc>
    <defs></defs>
    <g id="Page-1" stroke="none" stroke-width="1" fill="none" fill-rule="evenodd">
        <g id="01._Trang_Chu_Di_Dong" transform="translate(-10.000000, -4981.000000)" fill="#19449B" fill-rule="nonzero">
            <g id="Group-15-Copy" transform="translate(10.000000, 4980.000000)">
                <g id="Group-11">
                    <path d="M19.6111252,10.8024076 C19.8582433,10.9418813 19.999956,11.2294559 19.999956,11.5914404 C19.999956,12.1997057 19.6055868,12.9300553 19.1020758,13.2541609 L13.7351458,16.7088756 C13.4348414,16.9022246 13.1379655,17 12.8640784,17 C12.6802123,17 12.5067197,16.9559651 12.3494028,16.8671765 C11.9577148,16.6461484 11.7420248,16.1904775 11.7420248,15.5840994 C11.7420248,14.4719046 12.4632037,13.13648 13.3838529,12.5438516 L19.0516588,8.89542843 L7.92830848,1.73526988 L1.9187921,5.60364271 C1.23607433,6.04309266 0.659333414,7.11107289 0.659333414,7.93578296 L0.659333414,8.11551709 C0.659333414,8.94022717 1.23607433,10.0082523 1.9187921,10.4476573 L11.1183394,16.3694927 C11.2724036,16.468661 11.3186449,16.6767482 11.2216349,16.8342402 C11.124625,16.9916873 10.9210668,17.0390023 10.7670026,16.939834 L1.5674553,11.0179987 C0.688519906,10.4522406 0,9.17729649 0,8.11551709 L0,7.93578296 C0,6.87400356 0.688519906,5.59910442 1.5674553,5.03330136 L7.75266206,1.05183083 C7.86000154,0.982723056 7.99665938,0.982723056 8.10399886,1.05183083 L19.8460237,8.61028023 C19.9418468,8.67197397 20,8.77967965 20,8.89547337 C20,9.01126708 19.9418907,9.11897276 19.8460237,9.1806665 L13.7351897,13.1142379 C13.0121647,13.5796145 12.4013582,14.7106814 12.4013582,15.5840994 C12.4013582,15.9288744 12.498544,16.1814458 12.6680366,16.2771093 C12.8375732,16.3727279 13.0984495,16.3222226 13.383809,16.1385343 L18.750739,12.6838196 C19.0649773,12.4815288 19.3406226,11.9710839 19.3406226,11.5914404 C19.3406226,11.4502143 19.3020296,11.3978668 19.2924473,11.3924748 C19.2829969,11.3870827 19.2189976,11.3815559 19.1020758,11.4568196 L13.5660048,15.0204532 C13.4119405,15.1196215 13.2084263,15.0723514 13.1113724,14.9148594 C13.0143625,14.7573673 13.0606037,14.5493251 13.214668,14.4501118 L18.750739,10.8864782 C19.050428,10.6936235 19.364007,10.6629788 19.6111252,10.8024076 Z M15.5454995,9.23247487 C15.4854562,9.23247487 15.4247096,9.21571466 15.3701608,9.18062157 L7.75266206,4.2772048 C7.59859782,4.17803649 7.55235657,3.9699493 7.64936649,3.81245726 C7.74637641,3.65501016 7.94989066,3.60769515 8.10399886,3.70686346 L15.7214976,8.61028023 C15.8755618,8.70944854 15.9218031,8.91753573 15.8247931,9.07502777 C15.7621125,9.17671235 15.6550368,9.23247487 15.5454995,9.23247487 Z M14.227536,10.1268319 C14.1676685,10.1268319 14.1071417,10.1102065 14.0527247,10.0752932 L10.8346941,8.0126193 C10.6804101,7.91376553 10.6337733,7.70581314 10.7305194,7.54809643 C10.8271777,7.39042466 11.0306041,7.34266032 11.184932,7.44160396 L14.4029626,9.50427781 C14.5572466,9.60313159 14.6038835,9.81112891 14.5071373,9.96880068 C14.4445885,10.0708447 14.337293,10.1268319 14.227536,10.1268319 Z M9.84178196,8.32854698 L13.0845156,10.3982754 C13.2389754,10.4968596 13.2860078,10.7047221 13.1895693,10.8626185 C13.1270645,10.9649771 13.0195492,11.021189 12.9096164,11.021189 C12.8499687,11.021189 12.7896617,11.0046534 12.7353326,10.9700097 L9.49259898,8.90028126 C9.33813914,8.80169708 9.29110669,8.59383456 9.38754519,8.43593812 C9.48398369,8.27804168 9.68736607,8.2299628 9.84178196,8.32854698 Z M6.38274305,4.58877392 C6.4899067,4.51980094 6.62625685,4.51966614 6.73350842,4.58845938 L9.95184668,6.65131297 C10.0473182,6.71251244 10.1056032,6.81931945 10.1063944,6.9344841 C10.1071417,7.04969368 10.0503071,7.15730949 9.95567082,7.21985697 L9.21721739,7.70779021 C9.06442786,7.80880079 8.86025428,7.76400206 8.76139823,7.6076783 C8.66258613,7.45135454 8.70640982,7.24277307 8.85933122,7.14171756 L9.16293228,6.94113426 L6.55882902,5.27198829 L4.44017099,6.6359457 L7.08273535,8.31556118 L7.63490511,7.95074583 C7.78782651,7.84978018 7.99191218,7.89453398 8.09072428,8.05085774 C8.18953638,8.2071815 8.14571268,8.41576296 7.99279129,8.51681848 L7.26506302,8.99760729 C7.21064604,9.03355412 7.14840496,9.05157246 7.08611993,9.05157246 C7.02572499,9.05157246 6.96537401,9.03463252 6.91205591,9.00075264 L3.64461929,6.92396965 C3.54813683,6.86263538 3.48936825,6.75488477 3.4890166,6.63873158 C3.48866496,6.5225784 3.54686212,6.41446832 3.64299293,6.35259484 L6.38274305,4.58877392 Z M11.8719135,11.7563914 C11.8094966,11.8590646 11.7018055,11.9155011 11.5916528,11.9155011 C11.5322249,11.9155011 11.4720498,11.8991003 11.4178965,11.8646363 L8.15037197,9.78776348 C7.99573631,9.68949384 7.94835222,9.48172118 8.04448303,9.32364501 C8.14056988,9.16556884 8.34386435,9.11708555 8.49850002,9.21540013 L11.7660245,11.292273 C11.9206602,11.3905426 11.9680443,11.5983153 11.8719135,11.7563914 Z M2.35280931,7.44358103 C2.44894012,7.28550486 2.65219064,7.23697665 2.8068263,7.33533615 L10.8717047,12.4613986 C11.0263404,12.5596682 11.0737245,12.7674409 10.9775937,12.9255171 C10.9151768,13.0281902 10.8074856,13.0846267 10.697333,13.0846267 C10.6379051,13.0846267 10.5777299,13.068226 10.5235767,13.0337619 L2.45869826,7.9076995 C2.30406259,7.80942986 2.2566785,7.6016572 2.35280931,7.44358103 Z" id="qua-tri-tin-bai"></path>
                </g>
            </g>
        </g>
    </g>
</svg>